Fly_normalized_Motion_pl05
version=1
nRows=8
nColumns=43
inDegrees=yes
endheader
time		pelvis_tilt		pelvis_list		pelvis_rotation		pelvis_tx		pelvis_ty		pelvis_tz		hip_flexion_r		hip_adduction_r		hip_rotation_r		knee_angle_r		ankle_angle_r		subtalar_angle_r		mtp_angle_r		hip_flexion_l		hip_adduction_l		hip_rotation_l		knee_angle_l		ankle_angle_l		subtalar_angle_l		mtp_angle_l		lumbar_extension		lumbar_bending		lumbar_rotation		neck_flexion		neck_lateral_bending		neck_rotation		arm_flex_r		arm_add_r		arm_rot_r		elbow_flex_r		pro_sup_r		wrist_flex_r		wrist_dev_r		hand_finger_flex_r		arm_flex_l		arm_add_l		arm_rot_l		elbow_flex_l		pro_sup_l		wrist_flex_l		wrist_dev_l		hand_finger_flex_l		
0.765000		-2.500095		-15.091358		88.961922		0.014355		1.948964		1.435640		45.341664		-5.346628		2.706114		-105.041432		-11.560333		-6.242719		1.562943		44.883450		-2.200913		2.361989		-108.380948		-7.309074		-12.827216		12.022551		-44.477957		-2.603694		1.612641		13.323107		1.203756		-1.768578		135.887317		-8.068470		42.155381		51.646241		69.722529		-34.261126		-1.625160		29.995888		129.730994		-5.744981		27.836561		61.321517		106.865663		-28.691834		13.914036		80.043859		
0.769419		-2.199973		-15.164341		89.313420		0.013730		1.948417		1.428660		46.330723		-5.255561		1.885178		-105.701486		-12.053421		-7.956280		0.840909		46.013439		-2.109308		2.492127		-109.302753		-8.004252		-14.672839		10.700787		-44.332259		-2.147536		1.659236		13.065197		1.087044		-1.857798		135.125187		-8.627796		42.460680		52.475964		70.356413		-34.504910		-1.856080		29.998794		128.816073		-6.184796		28.052128		61.991698		107.794608		-28.588410		13.350794		80.101824		
0.773838		-2.100842		-14.765609		89.404057		0.013316		1.948398		1.421469		46.878870		-5.213720		1.507772		-106.404515		-12.074615		-8.441056		0.595836		46.545158		-2.031215		2.382162		-110.159587		-8.106089		-15.162240		10.232027		-44.766351		-1.993215		1.688880		13.070041		0.985066		-1.866419		134.545506		-9.057413		42.603620		53.030845		70.632711		-34.528988		-1.988105		30.055664		128.100644		-6.515265		28.181243		62.456400		108.118446		-28.532217		13.151616		80.167265		
0.778258		-2.046901		-14.280707		89.450119		0.012950		1.948431		1.414160		47.337173		-5.183513		1.190021		-107.045928		-11.900332		-8.749041		0.472719		46.957404		-1.929393		2.200689		-110.926456		-8.042170		-15.428822		9.961434		-45.306140		-1.891879		1.694622		13.097743		0.860945		-1.870991		133.908770		-9.549872		42.737811		53.718066		70.905945		-34.516367		-2.161654		30.130459		127.339576		-6.920861		28.328644		63.008782		108.348070		-28.500387		13.005064		80.245672		
0.782677		-1.792690		-14.415299		89.871087		0.012173		1.947239		1.407230		48.439687		-5.219911		0.360291		-107.643031		-11.654390		-9.917952		-0.563482		48.217211		-1.717411		2.278826		-111.687635		-8.248274		-16.683377		7.888916		-45.058331		-1.406199		1.676873		12.645370		0.751060		-1.987010		132.731011		-10.031782		42.532949		54.615215		72.751728		-35.198418		-2.396878		30.257987		126.011753		-7.136084		27.961460		63.639060		109.941595		-28.730513		12.498290		80.349224		
0.787096		-1.775709		-13.848706		89.861349		0.011957		1.947196		1.399840		48.852200		-5.198747		0.085870		-108.105543		-11.487027		-9.914809		-0.746561		48.534856		-1.655844		2.008751		-112.179346		-8.199774		-16.629265		7.478736		-45.721086		-1.360129		1.681914		12.777825		0.551355		-1.927525		131.991840		-10.616554		42.575762		55.487577		73.090280		-35.087503		-2.514597		30.451775		125.124630		-7.592821		27.986834		64.311373		110.110017		-28.707998		12.443849		80.465659		
0.791515		-1.715604		-13.704690		90.007350		0.011552		1.946056		1.392788		49.777934		-5.221614		-0.297210		-108.605189		-11.108559		-9.838333		-2.023279		49.427095		-1.503665		1.834947		-112.632765		-8.084084		-16.783489		4.549362		-45.835121		-1.193022		1.645820		12.555129		0.426590		-1.970575		130.808724		-11.020887		41.996237		56.312008		75.505362		-35.404470		-2.174849		31.260233		123.869146		-7.764351		27.557616		64.908601		111.555024		-28.904992		12.660357		80.691753		
0.795934		-1.698450		-13.149439		90.040367		0.011369		1.945618		1.385366		50.218945		-5.193709		-0.593557		-108.959046		-10.834153		-9.917785		-2.036025		49.729721		-1.473151		1.548378		-112.785688		-8.120091		-16.760339		4.351301		-46.461459		-1.115887		1.638504		12.583567		0.242315		-1.947458		129.840580		-11.591424		41.868308		57.217919		75.721213		-35.500375		-2.430955		31.359689		122.735506		-8.152934		27.325034		65.583762		111.467436		-29.008638		12.682247		80.761986		
